<svg id="visual" viewBox="0 0 960 540" width="960" height="540" xmlns="http://www.w3.org/2000/svg" xmlns:xlink="http://www.w3.org/1999/xlink" version="1.1"><path d="M0 93L10 86.7C20 80.3 40 67.7 60 68.5C80 69.3 100 83.7 120 79.2C140 74.7 160 51.3 180 48.7C200 46 220 64 240 76.7C260 89.3 280 96.7 300 98.5C320 100.3 340 96.7 360 91.2C380 85.7 400 78.3 420 77.3C440 76.3 460 81.7 480 87.2C500 92.7 520 98.3 540 88.5C560 78.7 580 53.3 600 51.5C620 49.7 640 71.3 660 83C680 94.7 700 96.3 720 91.8C740 87.3 760 76.7 780 77.7C800 78.7 820 91.3 840 87.7C860 84 880 64 900 51.3C920 38.7 940 33.3 950 30.7L960 28L960 0L950 0C940 0 920 0 900 0C880 0 860 0 840 0C820 0 800 0 780 0C760 0 740 0 720 0C700 0 680 0 660 0C640 0 620 0 600 0C580 0 560 0 540 0C520 0 500 0 480 0C460 0 440 0 420 0C400 0 380 0 360 0C340 0 320 0 300 0C280 0 260 0 240 0C220 0 200 0 180 0C160 0 140 0 120 0C100 0 80 0 60 0C40 0 20 0 10 0L0 0Z" fill="#f28c18"></path><path d="M0 249L10 245.5C20 242 40 235 60 243.2C80 251.3 100 274.7 120 287.2C140 299.7 160 301.3 180 278.8C200 256.3 220 209.7 240 200.7C260 191.7 280 220.3 300 250C320 279.7 340 310.3 360 297.8C380 285.3 400 229.7 420 214.3C440 199 460 224 480 235.7C500 247.3 520 245.7 540 228.7C560 211.7 580 179.3 600 169.5C620 159.7 640 172.3 660 185.8C680 199.3 700 213.7 720 205.5C740 197.3 760 166.7 780 168.5C800 170.3 820 204.7 840 216.3C860 228 880 217 900 226C920 235 940 264 950 278.5L960 293L960 26L950 28.7C940 31.3 920 36.7 900 49.3C880 62 860 82 840 85.7C820 89.3 800 76.7 780 75.7C760 74.7 740 85.3 720 89.8C700 94.3 680 92.7 660 81C640 69.3 620 47.7 600 49.5C580 51.3 560 76.7 540 86.5C520 96.3 500 90.7 480 85.2C460 79.7 440 74.3 420 75.3C400 76.3 380 83.7 360 89.2C340 94.7 320 98.3 300 96.5C280 94.7 260 87.3 240 74.7C220 62 200 44 180 46.7C160 49.3 140 72.7 120 77.2C100 81.7 80 67.3 60 66.5C40 65.7 20 78.3 10 84.7L0 91Z" fill="#ba6f22"></path><path d="M0 374L10 378.5C20 383 40 392 60 390.2C80 388.3 100 375.7 120 372C140 368.3 160 373.7 180 368.2C200 362.7 220 346.3 240 346.3C260 346.3 280 362.7 300 382.5C320 402.3 340 425.7 360 427.5C380 429.3 400 409.7 420 398.8C440 388 460 386 480 396.8C500 407.7 520 431.3 540 418.8C560 406.3 580 357.7 600 351.3C620 345 640 381 660 394.5C680 408 700 399 720 391.8C740 384.7 760 379.3 780 373.8C800 368.3 820 362.7 840 352.7C860 342.7 880 328.3 900 334.7C920 341 940 368 950 381.5L960 395L960 291L950 276.5C940 262 920 233 900 224C880 215 860 226 840 214.3C820 202.7 800 168.3 780 166.5C760 164.7 740 195.3 720 203.5C700 211.7 680 197.3 660 183.8C640 170.3 620 157.7 600 167.5C580 177.3 560 209.7 540 226.7C520 243.7 500 245.3 480 233.7C460 222 440 197 420 212.3C400 227.7 380 283.3 360 295.8C340 308.3 320 277.7 300 248C280 218.3 260 189.7 240 198.7C220 207.7 200 254.3 180 276.8C160 299.3 140 297.7 120 285.2C100 272.7 80 249.3 60 241.2C40 233 20 240 10 243.5L0 247Z" fill="#855425"></path><path d="M0 444L10 452C20 460 40 476 60 481.3C80 486.7 100 481.3 120 471.5C140 461.7 160 447.3 180 444.7C200 442 220 451 240 455.5C260 460 280 460 300 464.5C320 469 340 478 360 476.2C380 474.3 400 461.7 420 457.2C440 452.7 460 456.3 480 465.3C500 474.3 520 488.7 540 481.5C560 474.3 580 445.7 600 437.7C620 429.7 640 442.3 660 453.2C680 464 700 473 720 468.5C740 464 760 446 780 441.5C800 437 820 446 840 446.8C860 447.7 880 440.3 900 443C920 445.7 940 458.3 950 464.7L960 471L960 393L950 379.5C940 366 920 339 900 332.7C880 326.3 860 340.7 840 350.7C820 360.7 800 366.3 780 371.8C760 377.3 740 382.7 720 389.8C700 397 680 406 660 392.5C640 379 620 343 600 349.3C580 355.7 560 404.3 540 416.8C520 429.3 500 405.7 480 394.8C460 384 440 386 420 396.8C400 407.7 380 427.3 360 425.5C340 423.7 320 400.3 300 380.5C280 360.7 260 344.3 240 344.3C220 344.3 200 360.7 180 366.2C160 371.7 140 366.3 120 370C100 373.7 80 386.3 60 388.2C40 390 20 381 10 376.5L0 372Z" fill="#523a24"></path><path d="M0 541L10 541C20 541 40 541 60 541C80 541 100 541 120 541C140 541 160 541 180 541C200 541 220 541 240 541C260 541 280 541 300 541C320 541 340 541 360 541C380 541 400 541 420 541C440 541 460 541 480 541C500 541 520 541 540 541C560 541 580 541 600 541C620 541 640 541 660 541C680 541 700 541 720 541C740 541 760 541 780 541C800 541 820 541 840 541C860 541 880 541 900 541C920 541 940 541 950 541L960 541L960 469L950 462.7C940 456.3 920 443.7 900 441C880 438.3 860 445.7 840 444.8C820 444 800 435 780 439.5C760 444 740 462 720 466.5C700 471 680 462 660 451.2C640 440.3 620 427.7 600 435.7C580 443.7 560 472.3 540 479.5C520 486.7 500 472.3 480 463.3C460 454.3 440 450.7 420 455.2C400 459.7 380 472.3 360 474.2C340 476 320 467 300 462.5C280 458 260 458 240 453.5C220 449 200 440 180 442.7C160 445.3 140 459.7 120 469.5C100 479.3 80 484.7 60 479.3C40 474 20 458 10 450L0 442Z" fill="#212121"></path></svg>